<mxfile host="app.diagrams.net" modified="2022-02-16T05:38:23.816Z" agent="5.0 (X11; Linux x86_64) AppleWebKit/537.36 (KHTML, like Gecko) Chrome/96.0.4664.113 Safari/537.36" etag="1OKis-SdWwpHqBhJbPjc" version="16.5.6" type="github" pages="2">
  <diagram id="bhYe0sOpxUJMpFNZ3AqO" name="Getting Started">
    <mxGraphModel dx="3916" dy="2370" grid="1" gridSize="10" guides="1" tooltips="1" connect="1" arrows="1" fold="1" page="1" pageScale="1" pageWidth="1700" pageHeight="1100" math="0" shadow="0">
      <root>
        <mxCell id="0" />
        <mxCell id="1" parent="0" />
        <mxCell id="GbImMB25aux5EKX6KI4P-3" style="edgeStyle=orthogonalEdgeStyle;rounded=0;orthogonalLoop=1;jettySize=auto;html=1;entryX=0;entryY=0.5;entryDx=0;entryDy=0;fontFamily=Comfortaa;fontSource=https%3A%2F%2Ffonts.googleapis.com%2Fcss%3Ffamily%3DComfortaa;" edge="1" parent="1" source="GbImMB25aux5EKX6KI4P-1" target="GbImMB25aux5EKX6KI4P-2">
          <mxGeometry relative="1" as="geometry" />
        </mxCell>
        <mxCell id="GbImMB25aux5EKX6KI4P-1" value="Task Runner" style="rounded=0;whiteSpace=wrap;html=1;fontFamily=Comfortaa;fontSource=https%3A%2F%2Ffonts.googleapis.com%2Fcss%3Ffamily%3DComfortaa;fontSize=20;" vertex="1" parent="1">
          <mxGeometry x="580" y="100" width="120" height="60" as="geometry" />
        </mxCell>
        <mxCell id="GbImMB25aux5EKX6KI4P-2" value="Gulp" style="rounded=0;whiteSpace=wrap;html=1;fontFamily=Comfortaa;fontSource=https%3A%2F%2Ffonts.googleapis.com%2Fcss%3Ffamily%3DComfortaa;" vertex="1" parent="1">
          <mxGeometry x="840" y="100" width="120" height="60" as="geometry" />
        </mxCell>
        <mxCell id="GbImMB25aux5EKX6KI4P-4" value="gulp" style="rounded=0;whiteSpace=wrap;html=1;fontFamily=Comfortaa;fontSource=https%3A%2F%2Ffonts.googleapis.com%2Fcss%3Ffamily%3DComfortaa;" vertex="1" parent="1">
          <mxGeometry x="780" y="220" width="110" height="30" as="geometry" />
        </mxCell>
        <mxCell id="GbImMB25aux5EKX6KI4P-5" value="gulp-sass" style="rounded=0;whiteSpace=wrap;html=1;fontFamily=Comfortaa;fontSource=https%3A%2F%2Ffonts.googleapis.com%2Fcss%3Ffamily%3DComfortaa;" vertex="1" parent="1">
          <mxGeometry x="780" y="280" width="110" height="30" as="geometry" />
        </mxCell>
        <mxCell id="GbImMB25aux5EKX6KI4P-7" style="edgeStyle=orthogonalEdgeStyle;rounded=0;orthogonalLoop=1;jettySize=auto;html=1;entryX=0;entryY=0.5;entryDx=0;entryDy=0;fontFamily=Comfortaa;fontSource=https%3A%2F%2Ffonts.googleapis.com%2Fcss%3Ffamily%3DComfortaa;fontSize=30;" edge="1" parent="1" source="GbImMB25aux5EKX6KI4P-6" target="GbImMB25aux5EKX6KI4P-1">
          <mxGeometry relative="1" as="geometry" />
        </mxCell>
        <mxCell id="GbImMB25aux5EKX6KI4P-9" style="edgeStyle=orthogonalEdgeStyle;rounded=0;orthogonalLoop=1;jettySize=auto;html=1;fontFamily=Comfortaa;fontSource=https%3A%2F%2Ffonts.googleapis.com%2Fcss%3Ffamily%3DComfortaa;fontSize=20;" edge="1" parent="1" source="GbImMB25aux5EKX6KI4P-6" target="GbImMB25aux5EKX6KI4P-8">
          <mxGeometry relative="1" as="geometry" />
        </mxCell>
        <mxCell id="GbImMB25aux5EKX6KI4P-6" value="Compiling Sass" style="rounded=0;whiteSpace=wrap;html=1;fontFamily=Comfortaa;fontSource=https%3A%2F%2Ffonts.googleapis.com%2Fcss%3Ffamily%3DComfortaa;fontSize=30;fontStyle=1" vertex="1" parent="1">
          <mxGeometry x="210" y="100" width="290" height="170" as="geometry" />
        </mxCell>
        <mxCell id="GbImMB25aux5EKX6KI4P-10" style="edgeStyle=orthogonalEdgeStyle;rounded=0;orthogonalLoop=1;jettySize=auto;html=1;fontFamily=Comfortaa;fontSource=https%3A%2F%2Ffonts.googleapis.com%2Fcss%3Ffamily%3DComfortaa;fontSize=20;" edge="1" parent="1" source="GbImMB25aux5EKX6KI4P-8" target="GbImMB25aux5EKX6KI4P-4">
          <mxGeometry relative="1" as="geometry" />
        </mxCell>
        <mxCell id="GbImMB25aux5EKX6KI4P-11" style="edgeStyle=orthogonalEdgeStyle;rounded=0;orthogonalLoop=1;jettySize=auto;html=1;entryX=0;entryY=0.5;entryDx=0;entryDy=0;fontFamily=Comfortaa;fontSource=https%3A%2F%2Ffonts.googleapis.com%2Fcss%3Ffamily%3DComfortaa;fontSize=20;" edge="1" parent="1" source="GbImMB25aux5EKX6KI4P-8" target="GbImMB25aux5EKX6KI4P-5">
          <mxGeometry relative="1" as="geometry" />
        </mxCell>
        <mxCell id="GbImMB25aux5EKX6KI4P-13" style="edgeStyle=orthogonalEdgeStyle;rounded=0;orthogonalLoop=1;jettySize=auto;html=1;entryX=0;entryY=0.5;entryDx=0;entryDy=0;fontFamily=Comfortaa;fontSource=https%3A%2F%2Ffonts.googleapis.com%2Fcss%3Ffamily%3DComfortaa;fontSize=20;" edge="1" parent="1" source="GbImMB25aux5EKX6KI4P-8" target="GbImMB25aux5EKX6KI4P-12">
          <mxGeometry relative="1" as="geometry" />
        </mxCell>
        <mxCell id="GbImMB25aux5EKX6KI4P-8" value="Library" style="rounded=0;whiteSpace=wrap;html=1;fontFamily=Comfortaa;fontSource=https%3A%2F%2Ffonts.googleapis.com%2Fcss%3Ffamily%3DComfortaa;fontSize=20;" vertex="1" parent="1">
          <mxGeometry x="580" y="230" width="120" height="60" as="geometry" />
        </mxCell>
        <mxCell id="GbImMB25aux5EKX6KI4P-12" value="sass" style="rounded=0;whiteSpace=wrap;html=1;fontFamily=Comfortaa;fontSource=https%3A%2F%2Ffonts.googleapis.com%2Fcss%3Ffamily%3DComfortaa;" vertex="1" parent="1">
          <mxGeometry x="780" y="330" width="110" height="30" as="geometry" />
        </mxCell>
        <mxCell id="GbImMB25aux5EKX6KI4P-14" value="" style="shape=image;verticalLabelPosition=bottom;labelBackgroundColor=default;verticalAlign=top;aspect=fixed;imageAspect=0;image=https://upload.wikimedia.org/wikipedia/commons/thumb/9/96/Sass_Logo_Color.svg/1200px-Sass_Logo_Color.svg.png;" vertex="1" parent="1">
          <mxGeometry x="-350" width="520" height="390" as="geometry" />
        </mxCell>
        <mxCell id="GbImMB25aux5EKX6KI4P-15" value="" style="shape=image;verticalLabelPosition=bottom;labelBackgroundColor=default;verticalAlign=top;aspect=fixed;imageAspect=0;image=https://raw.githubusercontent.com/gulpjs/artwork/master/gulp-2x.png;" vertex="1" parent="1">
          <mxGeometry x="825.8800000000001" y="-220" width="134.12" height="300" as="geometry" />
        </mxCell>
        <mxCell id="GbImMB25aux5EKX6KI4P-18" style="edgeStyle=orthogonalEdgeStyle;rounded=0;orthogonalLoop=1;jettySize=auto;html=1;entryX=0;entryY=0.5;entryDx=0;entryDy=0;fontFamily=Comfortaa;fontSource=https%3A%2F%2Ffonts.googleapis.com%2Fcss%3Ffamily%3DComfortaa;fontSize=20;" edge="1" parent="1" source="GbImMB25aux5EKX6KI4P-16" target="GbImMB25aux5EKX6KI4P-17">
          <mxGeometry relative="1" as="geometry" />
        </mxCell>
        <mxCell id="GbImMB25aux5EKX6KI4P-20" style="edgeStyle=orthogonalEdgeStyle;rounded=0;orthogonalLoop=1;jettySize=auto;html=1;entryX=0;entryY=0.5;entryDx=0;entryDy=0;fontFamily=Comfortaa;fontSource=https%3A%2F%2Ffonts.googleapis.com%2Fcss%3Ffamily%3DComfortaa;fontSize=20;" edge="1" parent="1" source="GbImMB25aux5EKX6KI4P-16" target="GbImMB25aux5EKX6KI4P-19">
          <mxGeometry relative="1" as="geometry" />
        </mxCell>
        <mxCell id="GbImMB25aux5EKX6KI4P-22" style="edgeStyle=orthogonalEdgeStyle;rounded=0;orthogonalLoop=1;jettySize=auto;html=1;entryX=0;entryY=0.5;entryDx=0;entryDy=0;fontFamily=Comfortaa;fontSource=https%3A%2F%2Ffonts.googleapis.com%2Fcss%3Ffamily%3DComfortaa;fontSize=20;" edge="1" parent="1" source="GbImMB25aux5EKX6KI4P-16" target="GbImMB25aux5EKX6KI4P-21">
          <mxGeometry relative="1" as="geometry" />
        </mxCell>
        <mxCell id="GbImMB25aux5EKX6KI4P-24" style="edgeStyle=orthogonalEdgeStyle;rounded=0;orthogonalLoop=1;jettySize=auto;html=1;entryX=0;entryY=0.5;entryDx=0;entryDy=0;fontFamily=Comfortaa;fontSource=https%3A%2F%2Ffonts.googleapis.com%2Fcss%3Ffamily%3DComfortaa;fontSize=20;" edge="1" parent="1" source="GbImMB25aux5EKX6KI4P-16" target="GbImMB25aux5EKX6KI4P-23">
          <mxGeometry relative="1" as="geometry" />
        </mxCell>
        <mxCell id="GbImMB25aux5EKX6KI4P-16" value="Variable" style="rounded=0;whiteSpace=wrap;html=1;fontFamily=Comfortaa;fontSource=https%3A%2F%2Ffonts.googleapis.com%2Fcss%3Ffamily%3DComfortaa;fontSize=30;fontStyle=1" vertex="1" parent="1">
          <mxGeometry x="-60" y="570" width="290" height="170" as="geometry" />
        </mxCell>
        <mxCell id="GbImMB25aux5EKX6KI4P-17" value="$" style="rounded=0;whiteSpace=wrap;html=1;fontFamily=Comfortaa;fontSource=https%3A%2F%2Ffonts.googleapis.com%2Fcss%3Ffamily%3DComfortaa;fontSize=20;" vertex="1" parent="1">
          <mxGeometry x="470" y="550" width="120" height="60" as="geometry" />
        </mxCell>
        <mxCell id="GbImMB25aux5EKX6KI4P-19" value="colors" style="rounded=0;whiteSpace=wrap;html=1;fontFamily=Comfortaa;fontSource=https%3A%2F%2Ffonts.googleapis.com%2Fcss%3Ffamily%3DComfortaa;fontSize=20;" vertex="1" parent="1">
          <mxGeometry x="470" y="680" width="120" height="60" as="geometry" />
        </mxCell>
        <mxCell id="GbImMB25aux5EKX6KI4P-21" value="base-padding&lt;br&gt;base-margin" style="rounded=0;whiteSpace=wrap;html=1;fontFamily=Comfortaa;fontSource=https%3A%2F%2Ffonts.googleapis.com%2Fcss%3Ffamily%3DComfortaa;fontSize=20;" vertex="1" parent="1">
          <mxGeometry x="470" y="830" width="240" height="60" as="geometry" />
        </mxCell>
        <mxCell id="GbImMB25aux5EKX6KI4P-23" value="base-border-thickness&lt;br&gt;base-border-radius" style="rounded=0;whiteSpace=wrap;html=1;fontFamily=Comfortaa;fontSource=https%3A%2F%2Ffonts.googleapis.com%2Fcss%3Ffamily%3DComfortaa;fontSize=20;" vertex="1" parent="1">
          <mxGeometry x="470" y="930" width="290" height="60" as="geometry" />
        </mxCell>
        <mxCell id="GbImMB25aux5EKX6KI4P-28" style="edgeStyle=orthogonalEdgeStyle;rounded=0;orthogonalLoop=1;jettySize=auto;html=1;fontFamily=Comfortaa;fontSource=https%3A%2F%2Ffonts.googleapis.com%2Fcss%3Ffamily%3DComfortaa;fontSize=20;" edge="1" parent="1" source="GbImMB25aux5EKX6KI4P-25">
          <mxGeometry relative="1" as="geometry">
            <mxPoint x="700" y="1160" as="targetPoint" />
          </mxGeometry>
        </mxCell>
        <mxCell id="GbImMB25aux5EKX6KI4P-25" value="Partial" style="rounded=0;whiteSpace=wrap;html=1;fontFamily=Comfortaa;fontSource=https%3A%2F%2Ffonts.googleapis.com%2Fcss%3Ffamily%3DComfortaa;fontSize=30;fontStyle=1" vertex="1" parent="1">
          <mxGeometry x="240" y="1160" width="290" height="170" as="geometry" />
        </mxCell>
        <mxCell id="GbImMB25aux5EKX6KI4P-30" style="edgeStyle=orthogonalEdgeStyle;rounded=0;orthogonalLoop=1;jettySize=auto;html=1;entryX=0.07;entryY=0.4;entryDx=0;entryDy=0;entryPerimeter=0;fontFamily=Comfortaa;fontSource=https%3A%2F%2Ffonts.googleapis.com%2Fcss%3Ffamily%3DComfortaa;fontSize=20;" edge="1" parent="1" source="GbImMB25aux5EKX6KI4P-27" target="GbImMB25aux5EKX6KI4P-29">
          <mxGeometry relative="1" as="geometry" />
        </mxCell>
        <mxCell id="GbImMB25aux5EKX6KI4P-27" value="_filename.scss" style="rounded=0;whiteSpace=wrap;html=1;fontFamily=Comfortaa;fontSource=https%3A%2F%2Ffonts.googleapis.com%2Fcss%3Ffamily%3DComfortaa;fontSize=20;" vertex="1" parent="1">
          <mxGeometry x="670" y="1130" width="290" height="60" as="geometry" />
        </mxCell>
        <mxCell id="GbImMB25aux5EKX6KI4P-29" value="Compiler will ignore _filename.scss" style="ellipse;shape=cloud;whiteSpace=wrap;html=1;fontFamily=Comfortaa;fontSource=https%3A%2F%2Ffonts.googleapis.com%2Fcss%3Ffamily%3DComfortaa;fontSize=20;" vertex="1" parent="1">
          <mxGeometry x="1040" y="1100" width="260" height="160" as="geometry" />
        </mxCell>
      </root>
    </mxGraphModel>
  </diagram>
  <diagram id="Qs7P6Wxy05GfQykXxZG-" name="Make our own Library">
    <mxGraphModel dx="1108" dy="635" grid="1" gridSize="10" guides="1" tooltips="1" connect="1" arrows="1" fold="1" page="1" pageScale="1" pageWidth="1700" pageHeight="1100" math="0" shadow="0">
      <root>
        <mxCell id="7CSiRTunc4T0H33V8VW5-0" />
        <mxCell id="7CSiRTunc4T0H33V8VW5-1" parent="7CSiRTunc4T0H33V8VW5-0" />
      </root>
    </mxGraphModel>
  </diagram>
</mxfile>
